<svg id="Layer_1" data-name="Layer 1" xmlns="http://www.w3.org/2000/svg" viewBox="0 0 395.369 117.343"><defs><style>.cls-1{fill:#6d6e71;}</style></defs><title>Assets Logo</title><path class="cls-1" d="M372.471,44.605a29.068,29.068,0,0,0,5.051-1.756c.715,3.613.883,8.629,1.745,13.408.988,5.362,1.778,11.56,5.5,13.372-1.1,2.13-4.39,3.217-6.589,3.531-2.3-2.843-2.46-7.809-3.516-11.85-4.869,4.774-12.884,10.274-22.4,10.966-7.686.547-15.617-.862-14.936-9.659.8-10.022,13.006-21.256,23.935-22.61,5.261-.669,8.6,1.077,11.206,4.6m-13.4-1.963c-8,.853-16.425,10.855-14.7,20.209,1.018,5.593,7.767,7.7,14.482,6.133,4.508-1.051,13.246-5.708,14.491-9.663,1.69-5.284-1.455-10.25-2.641-14.052-3.6-1.814-6.366-3.193-11.627-2.627"/><path class="cls-1" d="M278.014,44.605a28.8,28.8,0,0,0,5.037-1.756c.728,3.613.905,8.629,1.771,13.408.971,5.362,1.766,11.56,5.488,13.372-1.1,2.13-4.391,3.217-6.577,3.531-2.3-2.843-2.46-7.809-3.516-11.85-4.869,4.774-12.884,10.274-22.387,10.966-7.721.547-15.626-.862-14.937-9.659.783-10.022,13-21.256,23.923-22.61,5.256-.669,8.6,1.077,11.2,4.6m-13.385-1.963c-8.006.853-16.416,10.855-14.705,20.209,1.03,5.593,7.754,7.7,14.495,6.133,4.478-1.051,13.208-5.708,14.469-9.663,1.687-5.284-1.45-10.25-2.628-14.052-3.595-1.814-6.383-3.193-11.631-2.627"/><path class="cls-1" d="M299.514,42.421c-.118,7.459-1.333,15.249-1.976,22.168,1.686-1.824,2.481-4.528,3.957-7.024,3.334-5.685,9.381-14.423,16.239-16.017,8.2-1.936,8.491,6.739,10.105,13.389.5,2.058,1.182,4.489,1.749,6.8.829,3.36.808,7.268,4.163,7.687-.4,1.383-4.2,4.6-6.349,4.156-2.334-.448-3.953-10.552-4.626-13.141-1.455-5.727-2.439-10.065-4.39-13.2-3.549-2.894-8.435,1.506-10.761,4.4-4.293,5.326-7.892,13.86-10.087,19.995-6.27.546-3.793-5.948-3.734-11.873.05-6.656-.1-14.535-1.094-18.885-.088-.372.307-.471.232-.866a14.649,14.649,0,0,1,6.572,2.414"/><path class="cls-1" d="M238.179,73.5s-6.551,1.577-5.676-6.936c1.53-14.628-3.381-49.025-3.953-56.35,2.531-.244,7.346-.141,8.322,1.383.908,1.443.294,4.042.21,6.152A271.673,271.673,0,0,0,239.2,70.083c.173,1.232.766,2.5-1.018,3.413"/><path class="cls-1" d="M161.711,67.03c-1.379-.224-1.7-2.737-3.734-1.511.53,3.343,2.473,7.68,5.719,7.67,1.253-.023,2.927-1.478,3.725-2.424,3.028-3.594,9.045-16.612,9.045-16.612,7.746-1.035,14.462-1.321,21.295-2.2,2.1-.263,5.189-.217,6.358-2.181-7.254-.883-17.245.679-25.685.231,4.37-9.04,8.806-18,13.827-26.365,8.83,12.737,16.386,29.912,24.376,44.571.891,1.628,2.822,5.185,4.378,5.5,2.893.534,6.164-2.064,7.476-3.965-3.213-.961-4.832-3.965-6.812-7.018-7.456-11.524-12.35-22.735-18.658-34.7-2.186-4.127-5.075-11.15-8.553-12.941-2.115-1.087-10.176-2.3-12.523-1.768-.954.256-2.051.366-1.959,1.558,4.949.983,8.885,2.937,10.954,6.784-5.227,9.7-10.613,19.247-16.462,28.344-7.359.019-14.382-.243-18.658-3.307-1.6,10.023,8.8,8.29,16.252,8.106-1.047,1.673-7.094,12.756-10.361,12.225"/><path class="cls-1" d="M138.512,61.85c-4.739,4.7-14.146,10.2-23.4,10.845-7.49.563-15.21-.833-14.542-9.413.783-9.752,12.666-20.664,23.313-22.007,5.109-.64,8.36,1.07,10.9,4.489,0,0,.841,1.837-.467,2.911-.841.682-25.024,17.008-25.024,17.008s-.929.767.214,1.663c2.86,2.266,7.343,3.244,12.014,2.144,4.395-1.024,12.813-6.9,14.011-10.733,0,0,4.9.593,2.982,3.093M131.35,47.177c-3.511-1.762-4.5-3.88-9.612-3.327-7.784.827-15.992,10.57-14.31,19.64,0,0,25.075-15.279,23.922-16.313"/><path class="cls-1" d="M63.759,20.687c-.126,7.291.563,38.426-.063,45.181,1.652-1.785,2.414-4.407,3.843-6.838,3.263-5.523,9.146-14.046,15.819-15.611,7.994-1.894,8.259,6.564,9.845,13.036.483,2,1.148,4.383,1.686,6.623.82,3.3.8,7.088,4.083,7.476-.408,1.354-4.1,4.483-6.211,4.088-2.254-.455-3.831-10.3-4.47-12.838-1.455-5.57-2.4-9.773-4.293-12.838-3.44-2.824-8.225,1.488-10.483,4.287C69.347,58.444,65.832,66.74,63.7,72.705c-6.106.56-3.675-5.777-3.633-11.557.059-6.5-1.947-37.7-2.936-41.943-.092-.369.312-.467.219-.85a14.343,14.343,0,0,1,6.413,2.332"/><path class="cls-1" d="M43.1,73.91s-6.4,1.512-5.522-6.751c1.476-14.262-3.3-47.752-3.856-54.914,2.443-.21,7.145-.128,8.082,1.365.887,1.4.32,3.938.223,5.971A263.754,263.754,0,0,0,44.079,70.59c.165,1.192.749,2.412-.983,3.32"/><path class="cls-1" d="M63.2,15.861c2.636-.325,6.492-.279,7.956-2.762-9.087-1.1-21.559.866-32.089.28H34.113c-7.686.063-15.1-.188-20.432-2.49a15.094,15.094,0,0,1-2.872-1.616C8.8,21.8,21.78,19.64,31.107,19.407c0,0,23.581-2.458,32.1-3.546"/><path class="cls-1" d="M133.867,91.7c.353,0,.733,0,1.119.01a8.1,8.1,0,0,1,1.175.093,6.638,6.638,0,0,1,1.082.148,3.428,3.428,0,0,1,.868.33,4.279,4.279,0,0,1,1.346,1.3,3.737,3.737,0,0,1,.562,2.034,3.894,3.894,0,0,1-.645,2.215,3.4,3.4,0,0,1-1.746,1.37v.079a3.609,3.609,0,0,1,2.261,1.318,4.041,4.041,0,0,1,.79,2.517,4.443,4.443,0,0,1-.321,1.7,4.681,4.681,0,0,1-.919,1.509,5.818,5.818,0,0,1-1.523,1.021,5.508,5.508,0,0,1-2.117.386h-7.731V91.7Zm.6,6.886a4.2,4.2,0,0,0,2.609-.636,2.266,2.266,0,0,0,.79-1.9,2.793,2.793,0,0,0-.274-1.365,1.947,1.947,0,0,0-.72-.78,3.3,3.3,0,0,0-1.119-.339c-.39-.033-.826-.047-1.286-.047h-4.253v5.066Zm1.068,7.346a3.171,3.171,0,0,0,2.21-.757,2.857,2.857,0,0,0,.8-2.113,2.382,2.382,0,0,0-.3-1.3,1.983,1.983,0,0,0-.77-.807,3.438,3.438,0,0,0-1.1-.456,9.49,9.49,0,0,0-1.3-.1h-4.862v5.535Z"/><polygon class="cls-1" points="154.539 107.732 152.393 107.732 152.393 101.171 146.204 91.703 148.735 91.703 153.531 99.337 158.244 91.703 160.663 91.703 154.539 101.171 154.539 107.732"/><path class="cls-1" d="M184.353,91.7l6.273,16.029h-2.354l-1.755-4.839h-6.775l-1.783,4.839h-2.187L182,91.7Zm1.486,9.389-2.661-7.466h-.037l-2.717,7.466Z"/><path class="cls-1" d="M204.686,93.9a4.432,4.432,0,0,0-2.722-.79,6.361,6.361,0,0,0-1.323.163,3.453,3.453,0,0,0-1.142.437,2.434,2.434,0,0,0-.817.854,2.491,2.491,0,0,0-.288,1.309,1.624,1.624,0,0,0,.436,1.194,3.051,3.051,0,0,0,1.17.752,13.136,13.136,0,0,0,1.635.5c.627.107,1.235.233,1.876.386a19.057,19.057,0,0,1,1.875.52,6.285,6.285,0,0,1,1.649.84,4.019,4.019,0,0,1,1.17,1.3,4.492,4.492,0,0,1-.148,4.146,4.364,4.364,0,0,1-1.445,1.477,6.738,6.738,0,0,1-2.015.826,9.838,9.838,0,0,1-2.21.256,8.8,8.8,0,0,1-2.554-.326,6.512,6.512,0,0,1-2.108-1.021,4.638,4.638,0,0,1-1.425-1.764,5.434,5.434,0,0,1-.529-2.512h2.006a3.663,3.663,0,0,0,.4,1.736,3.343,3.343,0,0,0,1.036,1.184,3.72,3.72,0,0,0,1.495.715,7.159,7.159,0,0,0,1.746.232,6.63,6.63,0,0,0,1.44-.158,3.7,3.7,0,0,0,1.309-.44,2.6,2.6,0,0,0,.947-.9,2.647,2.647,0,0,0,.348-1.426,2.008,2.008,0,0,0-.432-1.351,3.314,3.314,0,0,0-1.165-.822,7.912,7.912,0,0,0-1.644-.534c-.613-.135-1.253-.269-1.875-.432-.627-.139-1.264-.292-1.867-.473a7.217,7.217,0,0,1-1.658-.766,3.1,3.1,0,0,1-1.147-1.175,3.38,3.38,0,0,1-.459-1.82,4.293,4.293,0,0,1,.5-2.108,4.347,4.347,0,0,1,1.313-1.444,7.037,7.037,0,0,1,1.853-.878,9.3,9.3,0,0,1,2.141-.269,9.792,9.792,0,0,1,2.3.283,5.615,5.615,0,0,1,1.862.957,4.456,4.456,0,0,1,1.254,1.569,5.933,5.933,0,0,1,.492,2.275h-2a3.438,3.438,0,0,0-1.272-2.507"/><polygon class="cls-1" points="214 93.523 214 91.703 226.806 91.703 226.806 93.523 221.466 93.523 221.466 107.732 219.326 107.732 219.326 93.523 214 93.523"/><path class="cls-1" d="M232.652,96.56a7.855,7.855,0,0,1,1.439-2.688,7.044,7.044,0,0,1,2.4-1.844,7.3,7.3,0,0,1,3.334-.71,7.374,7.374,0,0,1,3.358.71,7.25,7.25,0,0,1,2.405,1.844,8.471,8.471,0,0,1,1.434,2.688,10.43,10.43,0,0,1,0,6.306,8.157,8.157,0,0,1-1.434,2.683,6.9,6.9,0,0,1-2.405,1.844,7.32,7.32,0,0,1-3.358.678,7.245,7.245,0,0,1-3.334-.678,6.713,6.713,0,0,1-2.4-1.844,7.584,7.584,0,0,1-1.439-2.683,10.43,10.43,0,0,1,0-6.306m1.95,5.53a6.889,6.889,0,0,0,.989,2.131,5.046,5.046,0,0,0,1.727,1.509,5.269,5.269,0,0,0,6.756-1.509,7.152,7.152,0,0,0,1-2.131,9.284,9.284,0,0,0,.3-2.391,9.549,9.549,0,0,0-.3-2.387,7.581,7.581,0,0,0-1-2.113,5.424,5.424,0,0,0-1.732-1.508,5.8,5.8,0,0,0-5.024,0,5.593,5.593,0,0,0-1.727,1.508,7.278,7.278,0,0,0-.989,2.113A9.509,9.509,0,0,0,234.3,99.7a9.242,9.242,0,0,0,.307,2.391"/><polygon class="cls-1" points="256.843 91.703 265.266 104.709 265.312 104.709 265.312 91.703 267.332 91.703 267.332 107.732 265.015 107.732 256.62 94.865 256.592 94.865 256.592 107.732 254.563 107.732 254.563 91.703 256.843 91.703"/></svg>