<svg id="Layer_1" data-name="Layer 1" xmlns="http://www.w3.org/2000/svg" viewBox="0 0 290.076 111.787"><defs><style>.cls-1{fill:#6d6e71;}</style></defs><title>Assets Logo</title><path class="cls-1" d="M53.505,93.67V68.275h2.357V78.5a9.99,9.99,0,0,1,3.318-2.716,9.293,9.293,0,0,1,10.654,1.916,9.452,9.452,0,0,1,2.754,6.846,9.3,9.3,0,0,1-2.779,6.791,9.043,9.043,0,0,1-6.679,2.81,8.516,8.516,0,0,1-4.056-.962A9.4,9.4,0,0,1,55.862,90.3V93.67Zm9.433-1.8a7.1,7.1,0,0,0,6.276-3.69,7.511,7.511,0,0,0-.006-7.43A7.255,7.255,0,0,0,66.541,78a6.918,6.918,0,0,0-3.572-.986A7.335,7.335,0,0,0,59.3,78a6.853,6.853,0,0,0-2.667,2.654,7.515,7.515,0,0,0-.936,3.758,7.329,7.329,0,0,0,2.089,5.321A6.927,6.927,0,0,0,62.938,91.872Z"/><path class="cls-1" d="M74.913,75.351h2.493L83.7,89.459l6.115-14.108h2.511L81.394,100.374H78.907l3.529-8.093Z"/><path class="cls-1" d="M114.788,69.3l14.455,30.988H125.9L121.016,90.1H107.675l-4.829,10.191H99.387L114.028,69.3Zm-.391,6.585L109.085,87.1h10.6Z"/><path class="cls-1" d="M130.84,94.522l2.634-1.584q2.775,5.121,6.42,5.118a6.067,6.067,0,0,0,2.928-.728,5.2,5.2,0,0,0,2.089-1.948,5,5,0,0,0,.71-2.588,5.2,5.2,0,0,0-1.05-3.052,25.168,25.168,0,0,0-5.311-4.975,27.114,27.114,0,0,1-4.821-4.236A7.728,7.728,0,0,1,132.8,75.8a7.2,7.2,0,0,1,.971-3.694,6.94,6.94,0,0,1,2.724-2.622,7.979,7.979,0,0,1,3.824-.956,8.178,8.178,0,0,1,4.094,1.084,14.176,14.176,0,0,1,4.037,3.988l-2.527,1.92a12.206,12.206,0,0,0-2.983-3.055,5.186,5.186,0,0,0-2.684-.737,4.246,4.246,0,0,0-3.062,1.137A3.735,3.735,0,0,0,136,75.66a4.746,4.746,0,0,0,.421,1.964,7.345,7.345,0,0,0,1.541,2.073c.412.389,1.739,1.422,4,3.083a22.571,22.571,0,0,1,5.511,5.285,8.5,8.5,0,0,1,1.5,4.668,7.871,7.871,0,0,1-2.552,5.848,8.607,8.607,0,0,1-6.225,2.488,9.077,9.077,0,0,1-5.118-1.511,13.65,13.65,0,0,1-4.234-5.036"/><polygon class="cls-1" points="152.45 72.341 152.45 69.302 169.425 69.302 169.425 72.341 162.52 72.341 162.52 100.29 159.357 100.29 159.357 72.341 152.45 72.341"/><path class="cls-1" d="M188.645,68.526a16.067,16.067,0,0,1,11.778,4.7,16.445,16.445,0,0,1,.011,23.1,15.653,15.653,0,0,1-11.537,4.744,15.85,15.85,0,0,1-11.631-4.717,15.5,15.5,0,0,1-4.746-11.417,16.532,16.532,0,0,1,2.166-8.284,15.941,15.941,0,0,1,13.959-8.125m.138,3.019a13.153,13.153,0,0,0-11.331,6.618,13.36,13.36,0,0,0-1.728,6.764,13.038,13.038,0,0,0,13.059,13.134,13.2,13.2,0,0,0,6.674-1.754,12.476,12.476,0,0,0,4.791-4.789,13.405,13.405,0,0,0,1.717-6.738,13.071,13.071,0,0,0-1.717-6.671,12.883,12.883,0,0,0-4.843-4.784,13.145,13.145,0,0,0-6.622-1.78"/><polygon class="cls-1" points="211.405 100.29 211.405 69.302 212.071 69.302 232.698 93.056 232.698 69.302 235.749 69.302 235.749 100.29 235.053 100.29 214.6 76.825 214.6 100.29 211.405 100.29"/><path class="cls-1" d="M40.581,29.812l-3.144,1.954a13.164,13.164,0,0,0-11.119-5.408,12.84,12.84,0,0,0-9.352,3.622,11.819,11.819,0,0,0-3.728,8.8,12.493,12.493,0,0,0,1.718,6.338,11.955,11.955,0,0,0,4.7,4.614,13.624,13.624,0,0,0,6.691,1.643,13.522,13.522,0,0,0,11.1-5.414l3.144,2.072a14.815,14.815,0,0,1-5.935,5.159,18.869,18.869,0,0,1-8.484,1.836,16.784,16.784,0,0,1-12.13-4.645A15.135,15.135,0,0,1,9.22,39.077a16.163,16.163,0,0,1,2.251-8.316A15.845,15.845,0,0,1,17.66,24.77a18.053,18.053,0,0,1,8.813-2.158,18.927,18.927,0,0,1,5.91.937,16.622,16.622,0,0,1,4.831,2.437A13.274,13.274,0,0,1,40.581,29.812Z"/><path class="cls-1" d="M62.8,22.612a15.279,15.279,0,0,1,11.807,5.16A16.06,16.06,0,0,1,78.864,38.91a16.05,16.05,0,0,1-4.5,11.287A15.091,15.091,0,0,1,62.8,55.028a15.12,15.12,0,0,1-11.6-4.831,16.021,16.021,0,0,1-4.5-11.287A15.979,15.979,0,0,1,50.963,27.8,15.262,15.262,0,0,1,62.8,22.612Zm-.019,3.882a11.465,11.465,0,0,0-8.5,3.659,12.219,12.219,0,0,0-3.554,8.838,12.467,12.467,0,0,0,1.625,6.232,11.437,11.437,0,0,0,4.378,4.465,12.424,12.424,0,0,0,12.112,0,11.478,11.478,0,0,0,4.378-4.465,12.524,12.524,0,0,0,1.619-6.232,12.181,12.181,0,0,0-3.566-8.838A11.467,11.467,0,0,0,62.783,26.494Z"/><path class="cls-1" d="M85.605,11.505h3.963V54.234H85.605Z"/><path class="cls-1" d="M97.227,11.505h3.963V54.234H97.227Z"/><path class="cls-1" d="M135.391,44.008l3.343,1.755a18.253,18.253,0,0,1-3.8,5.215,15.084,15.084,0,0,1-4.85,3.014,16.8,16.8,0,0,1-6.1,1.036q-7.545,0-11.8-4.943a16.66,16.66,0,0,1-4.254-11.175,16.475,16.475,0,0,1,3.6-10.456,14.724,14.724,0,0,1,12.223-5.842,15.222,15.222,0,0,1,12.6,5.979,16.722,16.722,0,0,1,3.4,10.542h-27.74a12.577,12.577,0,0,0,3.436,8.807,10.953,10.953,0,0,0,8.2,3.435,13.225,13.225,0,0,0,4.583-.818,11.985,11.985,0,0,0,3.783-2.177A18.3,18.3,0,0,0,135.391,44.008Zm0-8.3a13.27,13.27,0,0,0-2.313-5.073,10.948,10.948,0,0,0-4.012-3.057,12.3,12.3,0,0,0-5.253-1.16,11.322,11.322,0,0,0-7.8,2.915,13.261,13.261,0,0,0-3.6,6.375Z"/><path class="cls-1" d="M177.066,29.812l-3.144,1.954A13.164,13.164,0,0,0,162.8,26.358a12.84,12.84,0,0,0-9.352,3.622,11.819,11.819,0,0,0-3.728,8.8,12.493,12.493,0,0,0,1.718,6.338,11.955,11.955,0,0,0,4.695,4.614,14.2,14.2,0,0,0,17.786-3.771l3.144,2.072a14.815,14.815,0,0,1-5.935,5.159,18.868,18.868,0,0,1-8.483,1.836,16.784,16.784,0,0,1-12.131-4.645,15.135,15.135,0,0,1-4.812-11.306,16.163,16.163,0,0,1,2.251-8.316,15.845,15.845,0,0,1,6.189-5.991,18.053,18.053,0,0,1,8.813-2.158,18.927,18.927,0,0,1,5.91.937,16.622,16.622,0,0,1,4.831,2.437A13.274,13.274,0,0,1,177.066,29.812Z"/><path class="cls-1" d="M188.149,11.964h3.969V23.406h6.288v3.43h-6.288v27.4h-3.969v-27.4h-5.414v-3.43h5.414Z"/><path class="cls-1" d="M205.724,10.718a3.128,3.128,0,0,1,2.313.961,3.257,3.257,0,0,1,0,4.62,3.151,3.151,0,0,1-2.313.961,3.119,3.119,0,0,1-2.282-.961,3.254,3.254,0,0,1,0-4.62A3.1,3.1,0,0,1,205.724,10.718Zm-1.966,12.688h3.963V54.234h-3.963Z"/><path class="cls-1" d="M230.568,22.612a15.279,15.279,0,0,1,11.807,5.16A16.06,16.06,0,0,1,246.63,38.91a16.05,16.05,0,0,1-4.5,11.287,16.3,16.3,0,0,1-23.163,0,16.021,16.021,0,0,1-4.5-11.287A15.979,15.979,0,0,1,218.729,27.8,15.262,15.262,0,0,1,230.568,22.612Zm-.019,3.882a11.465,11.465,0,0,0-8.5,3.659,12.219,12.219,0,0,0-3.554,8.838,12.467,12.467,0,0,0,1.625,6.232,11.437,11.437,0,0,0,4.378,4.465,12.424,12.424,0,0,0,12.112,0,11.478,11.478,0,0,0,4.378-4.465,12.524,12.524,0,0,0,1.619-6.232,12.181,12.181,0,0,0-3.566-8.838A11.467,11.467,0,0,0,230.549,26.494Z"/><path class="cls-1" d="M253.966,23.406h3.963v5.526a16.6,16.6,0,0,1,5.271-4.745,12.965,12.965,0,0,1,6.289-1.575,10.937,10.937,0,0,1,6.139,1.761,10.5,10.5,0,0,1,3.951,4.732q1.275,2.977,1.277,9.266V54.234h-3.969V39.53a36.462,36.462,0,0,0-.44-7.113,7.814,7.814,0,0,0-2.648-4.6,7.981,7.981,0,0,0-5.1-1.544,9.78,9.78,0,0,0-6.449,2.382,11.094,11.094,0,0,0-3.752,5.891,40.794,40.794,0,0,0-.571,8.385V54.234h-3.963Z"/></svg>