<svg id="Layer_1" data-name="Layer 1" xmlns="http://www.w3.org/2000/svg" viewBox="0 0 600 127.208"><defs><style>.cls-1{fill:#808285;}</style></defs><title>favehotel Grey</title><path class="cls-1" d="M31.537,40.983v8.255H52.428v5.7H31.537v45.246H25.625V54.943H17.167v-5.7h8.458V40.983c0-11.413,6.625-16,16.917-16h9.886v5.709H42.441C35.511,30.691,31.537,32.933,31.537,40.983Z"/><path class="cls-1" d="M117.227,102.226c-7.846,0-11.617-2.957-12.941-9.68-3.873,3.976-13.553,9.68-22.726,9.68-13.859,0-19.666-6.522-19.666-15.693,0-8.46,5.807-15.08,14.98-16.1l27.106-2.957V63.1c0-8.662-6.013-10.292-16-10.292-9.477,0-15.389,1.425-15.9,9.273h-5.91c0-10.7,8.968-14.879,21.808-14.879s21.909,4.181,21.909,14.879v26.9c0,6.321,2.752,7.746,7.337,7.746ZM103.98,87.248V73.284L78.708,75.835C65.461,77.157,63.727,96.62,81.56,96.62,93.891,96.62,103.98,87.757,103.98,87.248Z"/><path class="cls-1" d="M155.43,100.189h-6.116L124.857,49.238h6.522l20.993,45.448,20.993-45.448h6.522Z"/><path class="cls-1" d="M236.328,83.679h6.725c-3.261,11.007-12.84,18.547-25.984,18.547-16.511,0-27.312-11.82-27.312-27.512S200.558,47.2,217.069,47.2s27.309,11.824,27.309,27.517a25.438,25.438,0,0,1-.2,2.85H196.382C197.6,89.08,205.655,96.62,217.069,96.62,226.239,96.62,233.373,91.63,236.328,83.679Zm-39.946-11.82h41.271C236.532,60.446,228.482,52.8,217.069,52.8S197.6,60.446,196.382,71.859Z"/><path class="cls-1" d="M262.2,100.189V26h5.912V58h.306a24.815,24.815,0,0,1,19.87-10.8c12.84,0,19.771,6.218,19.771,20.28v32.712h-5.91V68.9c0-11-4.382-16.1-16-16.1-9.374,0-18.036,8.867-18.036,16.1v31.287Z"/><path class="cls-1" d="M379.476,74.714c0,15.692-10.8,27.512-27.31,27.512s-27.311-11.82-27.311-27.512S335.656,47.2,352.166,47.2,379.476,59.021,379.476,74.714ZM352.166,96.62c12.33,0,20.788-8.863,20.788-21.906,0-12.946-8.458-21.911-20.788-21.911s-20.789,8.965-20.789,21.911C331.377,87.757,339.835,96.62,352.166,96.62Z"/><path class="cls-1" d="M424.3,95.5v5.709h-7.337c-10.3,0-16.917-4.588-16.917-16V54.943h-7.031v-5.7h7.031V34.461h5.91V49.238H424.3v5.7H405.957V85.207c0,8.054,3.973,10.193,10.9,10.292Z"/><path class="cls-1" d="M484.617,83.679h6.726c-3.261,11.007-12.841,18.547-25.985,18.547-16.51,0-27.312-11.82-27.312-27.512S448.848,47.2,465.358,47.2s27.309,11.824,27.309,27.517a25.438,25.438,0,0,1-.2,2.85H444.671c1.222,11.516,9.274,19.056,20.687,19.056C474.529,96.62,481.663,91.63,484.617,83.679Zm-39.946-11.82h41.271C484.821,60.446,476.771,52.8,465.358,52.8S445.893,60.446,444.671,71.859Z"/><path class="cls-1" d="M516.4,100.189h-5.912V26H516.4Z"/><path class="cls-1" d="M582.833,86.024c0,10.8-8.764,16.2-24.151,16.2-16.408,0-24.457-5.606-24.457-17.22h6.419c0,7.844,6.115,11.614,18.038,11.614,11,0,17.629-3.359,17.629-10.6,0-18.851-39.946.2-39.946-23.845,0-9.885,8.967-14.982,22.011-14.982,13.247,0,22.011,5.811,22.011,16h-6.419c0-7.438-5.5-10.293-15.592-10.4-9.374.1-15.49,2.546-15.49,9.376C542.886,78.788,582.833,60.343,582.833,86.024Z"/></svg>