<svg id="Layer_1" data-name="Layer 1" xmlns="http://www.w3.org/2000/svg" viewBox="0 0 408.318 136.647"><defs><style>.cls-1{fill:#6d6e71;}</style></defs><title>Assets Logo</title><path class="cls-1" d="M396.23,115.289H12.088V21.378H396.23ZM15.481,111.921H392.847V24.746H15.481Z"/><path class="cls-1" d="M72.093,77.012a1.215,1.215,0,0,0,.977.329v.6h-6.6v-.6a1.173,1.173,0,0,0,.952-.329,1.538,1.538,0,0,0,.238-.889V66.118H49.92V76.123a1.373,1.373,0,0,0,.263.889,1.086,1.086,0,0,0,.937.329v.6H44.506v-.6a1.176,1.176,0,0,0,.972-.329,1.5,1.5,0,0,0,.233-.889V53.394a1.573,1.573,0,0,0-.233-.882,1.2,1.2,0,0,0-.972-.3v-.618H51.12v.618c-.465,0-.775.083-.937.3a1.437,1.437,0,0,0-.263.882v9.424H67.656V53.394a1.615,1.615,0,0,0-.238-.882,1.192,1.192,0,0,0-.952-.3v-.618h6.6v.618a1.236,1.236,0,0,0-.977.3,1.7,1.7,0,0,0-.234.882V76.123a1.618,1.618,0,0,0,.234.889"/><path class="cls-1" d="M85.792,74.92c-.127.286-.3.651-.461,1.021a2.435,2.435,0,0,0-.253.856c0,.349.293.544.865.544v.6H79.79v-.6a2.417,2.417,0,0,0,.517-.048.947.947,0,0,0,.446-.309c.1-.16.263-.4.43-.7.167-.337.385-.785.654-1.274L90.9,54.738c.248-.547.456-.98.613-1.274A2.353,2.353,0,0,0,91.7,52.8c0-.405-.294-.6-.907-.6v-.6h7.319v.6c-.527,0-.806.2-.806.6a2.038,2.038,0,0,0,.269.778c.157.337.385.749.648,1.324l9.607,19.906c.309.626.542,1.107.709,1.451a5.677,5.677,0,0,0,.461.727,1.02,1.02,0,0,0,.507.309,3.5,3.5,0,0,0,.694.048v.6h-6.964v-.6c.405,0,.668-.048.8-.195a.6.6,0,0,0,.193-.532,1.281,1.281,0,0,0-.112-.5c-.081-.182-.263-.567-.532-1.19l-1.9-4H87.509Zm14.18-7.31L94.305,55.8,89.089,67.61Z"/><path class="cls-1" d="M122.57,77.012a1.079,1.079,0,0,0,.937.329v.6h-6.619v-.6a1.168,1.168,0,0,0,.962-.329,1.437,1.437,0,0,0,.273-.889V53.394a1.474,1.474,0,0,0-.273-.882,1.188,1.188,0,0,0-.962-.3v-.618h16.8c3.307,0,5.672.623,7.11,1.871a6.863,6.863,0,0,1,2.158,5.447,7.27,7.27,0,0,1-1.661,5.014,8.676,8.676,0,0,1-5.4,2.36l6.305,9.747a4.713,4.713,0,0,0,.891,1.058,1.688,1.688,0,0,0,1.079.251v.6h-7.212v-.6a2.359,2.359,0,0,0,.821-.091.4.4,0,0,0,.167-.342.768.768,0,0,0-.238-.56l-6.179-9.84h-9.212v9.615a1.434,1.434,0,0,0,.258.889m10.722-13.885c2.03,0,3.479-.364,4.31-1.162a4.085,4.085,0,0,0,1.24-3.145,4.681,4.681,0,0,0-.253-1.709,2.611,2.611,0,0,0-.886-1.2,4.934,4.934,0,0,0-1.8-.7,16.657,16.657,0,0,0-2.862-.2H122.312v8.108Z"/><path class="cls-1" d="M153.529,52.512a1.167,1.167,0,0,0-.962-.3v-.618h16.845q4.953,0,7.1,1.856a6.562,6.562,0,0,1,2.158,5.2,7.746,7.746,0,0,1-2.132,5.826c-1.408,1.365-3.754,2.036-6.975,2.036h-11.6v9.615a1.468,1.468,0,0,0,.268.889,1.112,1.112,0,0,0,.952.329v.6h-6.619v-.6a1.147,1.147,0,0,0,.962-.329,1.536,1.536,0,0,0,.248-.889V53.394a1.576,1.576,0,0,0-.248-.882M169.32,63.127c2.026,0,3.46-.364,4.311-1.162a4.139,4.139,0,0,0,1.24-3.145,3.55,3.55,0,0,0-1.129-2.907c-.75-.616-2.224-.894-4.422-.894H157.966v8.108Z"/><path class="cls-1" d="M187.137,52.512c-.157-.218-.476-.3-.957-.3v-.618h21a3.493,3.493,0,0,0,1.641-.223.818.818,0,0,0,.364-.77h.613v5.713h-.613a1.37,1.37,0,0,0-.405-1.028,2.253,2.253,0,0,0-1.56-.385H191.594v7.918h10.195a2.989,2.989,0,0,0,1.453-.308,1.116,1.116,0,0,0,.568-1.092h.6v6.05h-.6a1.127,1.127,0,0,0-.431-1.036,2.651,2.651,0,0,0-1.5-.314H191.594v8.521h16.743a2.693,2.693,0,0,0,1.555-.377,1.539,1.539,0,0,0,.5-1.31h.6V78.9h-.6c0-.651-.577-.957-1.762-.957H186.18v-.6a1.1,1.1,0,0,0,.957-.329,1.433,1.433,0,0,0,.249-.889V53.394a1.5,1.5,0,0,0-.249-.882"/><path class="cls-1" d="M225.577,77.012a1.073,1.073,0,0,0,.931.329v.6h-6.6v-.6a1.107,1.107,0,0,0,.952-.329,1.467,1.467,0,0,0,.258-.889V53.394a1.5,1.5,0,0,0-.258-.882c-.163-.218-.476-.3-.952-.3v-.618H236.7c3.3,0,5.677.623,7.11,1.871a6.854,6.854,0,0,1,2.142,5.447,7.215,7.215,0,0,1-1.656,5.014c-1.1,1.218-2.9,2.016-5.414,2.36l6.316,9.747a6,6,0,0,0,.881,1.058,1.766,1.766,0,0,0,1.074.251v.6h-7.2v-.6a2.328,2.328,0,0,0,.82-.091.37.37,0,0,0,.157-.342.779.779,0,0,0-.227-.56l-6.174-9.84h-9.218v9.615a1.348,1.348,0,0,0,.269.889m10.711-13.885c2.046,0,3.474-.364,4.31-1.162a4.114,4.114,0,0,0,1.261-3.145,5.178,5.178,0,0,0-.253-1.709,2.731,2.731,0,0,0-.906-1.2,4.726,4.726,0,0,0-1.778-.7,17.113,17.113,0,0,0-2.9-.2H225.308v8.108Z"/><rect class="cls-1" x="273.639" y="9.998" width="10.914" height="116.65"/><path class="cls-1" d="M296.525,72.874V61.9h4.69a1.6,1.6,0,0,1,1.57,1.59v2.33a1.479,1.479,0,0,1-.471,1.114.486.486,0,0,1-.046.071c.016.02.041.035.046.063a1.48,1.48,0,0,1,.471,1.1v3.145a1.481,1.481,0,0,1-.471,1.1,1.409,1.409,0,0,1-1.1.461Zm4.69-9.382h-3.13v3.13h3.13Zm0,4.677h-3.13v3.145h3.13Z"/><polygon class="cls-1" points="310.463 72.874 310.463 68.169 308.103 63.492 308.103 61.902 309.683 61.902 309.683 63.492 311.243 66.622 312.797 63.492 312.797 61.902 314.378 61.902 314.378 63.492 312.008 68.169 312.008 72.874 310.463 72.874"/><path class="cls-1" d="M327.378,72.874V63.492a1.538,1.538,0,0,1,.426-1.122,1.575,1.575,0,0,1,1.129-.468h3.13a1.527,1.527,0,0,1,1.1.468,1.49,1.49,0,0,1,.461,1.122v9.382h-1.56v-4.7h-3.13v4.7Zm4.685-9.382h-3.115v3.13h3.115Z"/><path class="cls-1" d="M340.511,72.874a1.531,1.531,0,0,1-1.55-1.575V69.752h1.55V71.3h3.139v-3.13h-3.139a1.543,1.543,0,0,1-1.115-.448,1.481,1.481,0,0,1-.435-1.1v-3.13a1.487,1.487,0,0,1,.435-1.122,1.562,1.562,0,0,1,1.115-.468h3.139a1.586,1.586,0,0,1,1.565,1.59v1.552H343.65V63.492h-3.139v3.13h3.139a1.562,1.562,0,0,1,1.1.448,1.508,1.508,0,0,1,.461,1.1V71.3a1.519,1.519,0,0,1-.461,1.114,1.439,1.439,0,0,1-1.1.461Z"/><polygon class="cls-1" points="352.883 72.874 352.883 63.492 350.528 63.492 350.528 61.902 356.788 61.902 356.788 63.492 354.428 63.492 354.428 72.874 352.883 72.874"/><path class="cls-1" d="M363.685,72.874a1.431,1.431,0,0,1-1.113-.461,1.527,1.527,0,0,1-.462-1.1V63.492a1.564,1.564,0,0,1,.462-1.122,1.54,1.54,0,0,1,1.113-.468h3.13a1.509,1.509,0,0,1,1.1.468,1.532,1.532,0,0,1,.466,1.122v7.822a1.5,1.5,0,0,1-.466,1.1,1.4,1.4,0,0,1-1.1.461Zm3.13-9.382h-3.13v7.822h3.13Z"/><polygon class="cls-1" points="373.708 72.874 373.708 61.902 375.278 61.902 379.203 69.752 379.203 61.902 380.753 61.902 380.753 72.874 379.203 72.874 375.278 65.044 375.278 72.874 373.708 72.874"/></svg>