<svg id="Layer_1" data-name="Layer 1" xmlns="http://www.w3.org/2000/svg" viewBox="0 0 347.757 113.529"><defs><style>.cls-1{fill:#6d6e71;}</style></defs><title>Assets Logo</title><path class="cls-1" d="M52.206,71.868h-8.58V49.132H17.369V71.868H8.788V18.476h8.581V40.992H43.626V18.476h8.58Z"/><path class="cls-1" d="M80.589,58.373a11.937,11.937,0,0,0,4.4,4.218,12.14,12.14,0,0,0,6.087,1.577,12.88,12.88,0,0,0,6.271-1.541,11.613,11.613,0,0,0,4.437-4.18,10.907,10.907,0,0,0,1.613-5.794V18.476h8.435v34.4a18.723,18.723,0,0,1-10.268,17.089,23.23,23.23,0,0,1-20.939,0,18.825,18.825,0,0,1-7.444-6.931,19.069,19.069,0,0,1-2.714-10.158v-34.4h8.508V52.653A10.767,10.767,0,0,0,80.589,58.373Z"/><path class="cls-1" d="M195.807,18.476V63.654h26.33v8.214H187.226V18.476Z"/><path class="cls-1" d="M276.189,18.476V26.69H249.346V40.918h23.909v8.214H249.346V63.654h27.87v8.214H240.765V18.476Z"/><path class="cls-1" d="M338.968,18.476,318.946,54.56V71.868h-8.507V54.56L290.71,18.476H301.2l13.788,26.329,13.5-26.329Z"/><polygon class="cls-1" points="149.138 34.706 164.505 10.735 174.786 10.735 154.337 42.651 149.138 34.706"/><polygon class="cls-1" points="178.896 102.794 189.833 102.794 135.259 18.768 124.468 18.768 178.896 102.794"/><polygon class="cls-1" points="144.469 55.103 134.818 71.868 124.32 71.868 139.77 47.903 144.469 55.103"/></svg>