<svg id="Layer_1" data-name="Layer 1" xmlns="http://www.w3.org/2000/svg" viewBox="0 0 258.798 161.858"><defs><style>.cls-1{fill:#6d6e71;}</style></defs><title>Assets Logo</title><polygon class="cls-1" points="86.201 46.414 86.201 33.641 87.78 33.641 87.78 38.438 95.771 38.438 95.771 33.641 97.359 33.641 97.359 46.414 95.771 46.414 95.771 40.037 87.78 40.037 87.78 46.414 86.201 46.414"/><path class="cls-1" d="M109.785,46.414h-.03a1.575,1.575,0,0,1-1.123-.451,1.733,1.733,0,0,1-.465-1.144V35.254a1.677,1.677,0,0,1,.465-1.129,1.629,1.629,0,0,1,1.153-.462v-.022h6.374v.022a1.657,1.657,0,0,1,1.118.462,1.538,1.538,0,0,1,.475,1.129v9.565a1.587,1.587,0,0,1-.475,1.144,1.645,1.645,0,0,1-1.118.451Zm5.569-1.595a.778.778,0,0,0,.545-.213,1.031,1.031,0,0,0,.26-.507V35.973a1.019,1.019,0,0,0-.26-.484.665.665,0,0,0-.545-.235h-4.785a.748.748,0,0,0-.589.235.7.7,0,0,0-.2.484V44.1a.736.736,0,0,0,.2.507.882.882,0,0,0,.589.213Z"/><polygon class="cls-1" points="133.365 46.414 133.365 35.254 128.565 35.254 128.565 33.641 139.723 33.641 139.723 35.254 134.928 35.254 134.928 46.414 133.365 46.414"/><path class="cls-1" d="M152.129,46.414h-.01a1.547,1.547,0,0,1-1.1-.451,1.638,1.638,0,0,1-.459-1.144V35.254a1.586,1.586,0,0,1,.459-1.129,1.563,1.563,0,0,1,1.114-.462v-.022h7.991v1.613h-7.167a.708.708,0,0,0-.594.235.887.887,0,0,0-.23.484v2.465h7.991v1.6h-7.991V44.1a.91.91,0,0,0,.23.507.824.824,0,0,0,.594.213h7.167v1.595Z"/><path class="cls-1" d="M172.537,46.414h-.02a1.589,1.589,0,0,1-1.129-.451,1.7,1.7,0,0,1-.459-1.144V33.641h1.608V44.1a.725.725,0,0,0,.23.507.76.76,0,0,0,.569.213h7.172v1.595Z"/><path class="cls-1" d="M51.674,106.286V61.61a6.48,6.48,0,0,1,1.783-4.5,6.636,6.636,0,0,1,4.585-1.776v-.085H83.579v.085a6.413,6.413,0,0,1,4.475,1.776,6.192,6.192,0,0,1,1.9,4.5v44.676H83.579v-41.8a3.553,3.553,0,0,0-1.019-1.878,2.806,2.806,0,0,0-2.177-1H61.254a2.9,2.9,0,0,0-2.288,1,2.982,2.982,0,0,0-.924,1.878v41.8Z"/><path class="cls-1" d="M116.648,106.286h-.11a6.3,6.3,0,0,1-4.48-1.807,6.386,6.386,0,0,1-1.8-4.6V61.61a6.338,6.338,0,0,1,1.8-4.5,6.558,6.558,0,0,1,4.59-1.776v-.085h31.885V61.61H119.819a3.273,3.273,0,0,0-3.171,2.877v9.874h31.885v6.386H116.648V97.086a2.867,2.867,0,0,0,.894,1.891,3.017,3.017,0,0,0,2.277.9h28.714v6.408Z"/><path class="cls-1" d="M175.219,106.286h-.09a6.3,6.3,0,0,1-4.485-1.807,6.449,6.449,0,0,1-1.8-4.6V61.62a6.347,6.347,0,0,1,1.8-4.5,6.549,6.549,0,0,1,4.575-1.791v-.07h25.512v.07a6.413,6.413,0,0,1,4.5,1.791,6.193,6.193,0,0,1,1.888,4.5V99.878a6.309,6.309,0,0,1-6.388,6.408Zm22.34-6.408a3,3,0,0,0,2.188-.9,3.288,3.288,0,0,0,.984-1.891v-32.6a3.339,3.339,0,0,0-.984-1.868,2.831,2.831,0,0,0-2.188-1H178.4a2.9,2.9,0,0,0-2.268,1,3.094,3.094,0,0,0-.909,1.868v32.6a3.121,3.121,0,0,0,3.177,2.792Z"/><path class="cls-1" d="M123.086,134.288h-4.755a.734.734,0,0,0-.579.242.811.811,0,0,0-.23.465v2.462h6.353V135a1.073,1.073,0,0,0-.245-.465A.705.705,0,0,0,123.086,134.288Z"/><path class="cls-1" d="M162.623,134.288h-4.745a.751.751,0,0,0-.59.242.841.841,0,0,0-.224.465v8.1a.793.793,0,0,0,.814.694h4.745a.756.756,0,0,0,.544-.234.991.991,0,0,0,.245-.46V135a1.023,1.023,0,0,0-.245-.465A.7.7,0,0,0,162.623,134.288Z"/><path class="cls-1" d="M88.274,137.457H83.5a.7.7,0,0,0-.559.243.892.892,0,0,0-.23.459V143.1a.819.819,0,0,0,.23.46.771.771,0,0,0,.559.234h4.77a.8.8,0,0,0,.55-.234.947.947,0,0,0,.239-.46v-4.937a1.051,1.051,0,0,0-.239-.459A.723.723,0,0,0,88.274,137.457Z"/><path class="cls-1" d="M14.325,9.4V152.453H244.473V9.4ZM90.642,143.79a1.46,1.46,0,0,1-.47,1.127,1.536,1.536,0,0,1-1.109.454H82.705a1.535,1.535,0,0,1-1.563-1.581V132.7h1.573v3.162h6.348v.032a1.527,1.527,0,0,1,1.109.445,1.484,1.484,0,0,1,.47,1.121Zm12.666,4.762a1.535,1.535,0,0,1-.485,1.105,1.557,1.557,0,0,1-1.114.444v.023H98.538v-1.572h2.382a.708.708,0,0,0,.545-.257,1.008,1.008,0,0,0,.244-.477v-2.447H95.346a1.592,1.592,0,0,1-1.119-.454,1.526,1.526,0,0,1-.439-1.127v-7.931h1.578V143.1a.8.8,0,0,0,.24.46.718.718,0,0,0,.559.234h4.755a.724.724,0,0,0,.545-.234.914.914,0,0,0,.244-.46v-7.237h1.6Zm22.14-3.181h-1.573v-6.343h-6.353v6.343h-1.568V134.288a1.572,1.572,0,0,1,.439-1.126,1.607,1.607,0,0,1,1.129-.445v-.02h6.353v.02a1.587,1.587,0,0,1,1.114.445,1.526,1.526,0,0,1,.459,1.126Zm12.661-1.581a1.447,1.447,0,0,1-.479,1.127,1.5,1.5,0,0,1-1.109.454H130.2V143.79h5.534a.7.7,0,0,0,.539-.234.714.714,0,0,0,.25-.46v-3.344a.774.774,0,0,0-.25-.472.677.677,0,0,0-.539-.252h-5.579a1.587,1.587,0,0,1-1.109-.442,1.658,1.658,0,0,1-.444-1.129v-3.169a1.666,1.666,0,0,1,.444-1.126,1.642,1.642,0,0,1,1.154-.445v-.02h6.323v1.591h-5.534a.688.688,0,0,0-.569.242.617.617,0,0,0-.22.465v1.768a.6.6,0,0,0,.22.459.736.736,0,0,0,.569.235h5.534v.018a1.563,1.563,0,0,1,1.588,1.553Zm14.235-9.5h-4.755v11.083h-1.573V134.288h-4.77V132.7h11.1Zm12.661,9.5a1.5,1.5,0,0,1-.48,1.127,1.551,1.551,0,0,1-1.113.454h-6.363a1.544,1.544,0,0,1-1.559-1.581v-9.5a1.53,1.53,0,0,1,1.574-1.571v-.02h6.348v.02a1.594,1.594,0,0,1,1.113.445,1.546,1.546,0,0,1,.48,1.126Zm12.651,1.581h-1.6V135a.719.719,0,0,0-.24-.465.677.677,0,0,0-.544-.242h-4.75a.661.661,0,0,0-.565.242.608.608,0,0,0-.224.465v10.376h-1.593V134.288a1.656,1.656,0,0,1,.439-1.126,1.684,1.684,0,0,1,1.154-.445v-.02h6.323v.02a1.527,1.527,0,0,1,1.109.445,1.5,1.5,0,0,1,.489,1.126Zm64.864-16.807H16.273V11.343H242.52Z"/><rect class="cls-1" x="78.024" y="129.591" width="108.829" height="21.279"/></svg>