<?xml version="1.0" encoding="utf-8"?>
<!-- Generator: Adobe Illustrator 21.1.0, SVG Export Plug-In . SVG Version: 6.00 Build 0)  -->
<svg version="1.1" id="Layer_1" xmlns="http://www.w3.org/2000/svg" xmlns:xlink="http://www.w3.org/1999/xlink" x="0px" y="0px"
	 viewBox="0 0 691.5 111" style="enable-background:new 0 0 691.5 111;" xml:space="preserve">
<style type="text/css">
	.st0{fill:#6D6E71;}
</style>
<g>
	<g>
		<path class="st0" d="M155,65c3.2,3.2,6.9,5.7,11.1,7.5c4.3,1.8,8.8,2.8,13.6,2.8c4.8,0,9.4-0.9,13.7-2.8c4.2-1.8,8-4.3,11.1-7.5
			c3.1-3.2,5.7-6.9,7.5-11.1c1.8-4.3,2.8-8.9,2.8-13.7s-0.9-9.4-2.8-13.6c-1.8-4.2-4.4-8-7.5-11.1c-3.1-3.1-6.9-5.6-11.1-7.4
			c-4.2-1.8-8.9-2.7-13.7-2.7c-4.7,0-9.5,0.9-13.7,2.7c-4.2,1.8-7.9,4.3-11,7.4c-3.2,3.1-5.7,6.9-7.5,11.1
			c-1.8,4.3-2.8,8.9-2.8,13.6s0.9,9.4,2.8,13.7C149.3,58.1,151.8,61.8,155,65z M167.4,27.9c3.5-3.5,7.4-5.1,12.3-5.1
			c4.9,0,8.9,1.6,12.4,5.1c3.5,3.5,5.1,7.4,5.1,12.3c0,4.9-1.6,8.9-5.1,12.4c-3.5,3.5-7.4,5.1-12.4,5.1c-4.9,0-8.8-1.6-12.3-5.1
			c-3.5-3.5-5.1-7.4-5.1-12.4C162.3,35.3,163.9,31.4,167.4,27.9z"/>
		<path class="st0" d="M197.4,88.4c-5.5,0-10.6-1-16.1-2c-5.6-1.1-12-2.3-19.2-2.3c-5.1,0-10.1,0.6-15.2,1.9l-3.3,0.8v18l5.6-1.5
			c4.3-1.2,8.5-1.8,12.8-1.8c5.5,0,10.6,1,16.1,2c6,1.1,12.2,2.3,19.3,2.3c5,0,9.9-0.6,15-1.9l3.3-0.8v-18l-5.5,1.5
			C205.9,87.8,201.7,88.4,197.4,88.4z"/>
		<polygon class="st0" points="88.5,72.4 5.9,0 5.9,105.8 23.8,105.8 23.8,38.9 106.4,111 106.4,5.2 88.5,5.2 		"/>
		<path class="st0" d="M343.8,59.2c6.5-6,9.7-13.7,9.7-22.7c0-8.9-3.3-16.5-9.7-22.5c-6.2-5.8-13.9-8.7-23-8.7h-48.2H253v100.5h17.9
			V67.9l1.7,0v0l43-0.1l21.9,37.9h19.2l-23.2-40.2C337.3,64.2,340.8,62,343.8,59.2z M322.1,50.4h-49.5h-1.7V22.7h1.7h49.5
			c4.2,0,7.5,1.2,9.9,3.7c2.4,2.6,3.6,5.8,3.6,9.9c0,4.1-1.3,7.4-3.9,10.2C329.2,49.2,326.1,50.4,322.1,50.4z"/>
		<rect x="527.8" y="5.2" class="st0" width="17.9" height="100.5"/>
		<path class="st0" d="M475.8,19.1c-4.5-4.3-9.9-7.7-16-10.2c-6.1-2.4-12.7-3.7-19.6-3.7h-49.4v100.5h49.4c6.9,0,13.5-1.2,19.6-3.7
			c6.1-2.4,11.5-5.9,16-10.2c4.5-4.3,8.1-9.5,10.8-15.5c2.6-6,4-12.6,4-19.7v-2.5c0-7.1-1.4-13.7-4-19.7
			C483.9,28.6,480.3,23.4,475.8,19.1z M472.9,56.7c0,9-3.1,16.3-9.4,22.3c-6.3,5.9-13.8,8.8-23,8.8h-31.8V23.1h31.8
			c9.3,0,16.8,2.9,23,8.8c6.3,6,9.4,13.3,9.4,22.3V56.7z"/>
	</g>
	<path class="st0" d="M613.6,9.2c-6,2.6-11.4,6.2-15.9,10.7c-4.5,4.5-8.2,9.9-10.8,16c-2.6,6.1-4,12.7-4,19.6c0,6.9,1.3,13.5,4,19.6
		c2.6,6.1,6.2,11.5,10.8,16c4.6,4.5,9.9,8.1,16,10.8c6.7,2.9,18,4,23.9,4c6.9,0,13.5-1.3,19.6-4c6.1-2.6,11.5-6.2,16-10.8
		c3.1-3.1,5.9-6.7,8.2-10.8l3.7-6.5h-20.5l-1.3,1.6c-0.8,1-1.7,2-2.6,3c-6.4,6.4-13.9,9.5-23,9.5c-8.5,0-20.6-3-27.2-9.5
		c-6.4-6.4-9.5-13.9-9.5-22.9c0-9,3.1-16.4,9.5-22.8c6.5-6.5,18.7-9.5,27.2-9.5c9.1,0,16.6,3.1,23,9.5c1.7,1.7,3.2,3.5,4.5,5.5
		l1.3,2h19.7l-3-6.2c-2.6-5.3-5.9-10-9.8-14c-4.5-4.5-9.9-8.1-16-10.7c-6.1-2.6-12.7-4-19.6-4C631.6,5.2,620.3,6.3,613.6,9.2"/>
</g>
</svg>
