<?xml version="1.0" encoding="utf-8"?>
<!-- Generator: Adobe Illustrator 24.0.2, SVG Export Plug-In . SVG Version: 6.00 Build 0)  -->
<svg version="1.1" id="Layer_1" xmlns="http://www.w3.org/2000/svg" xmlns:xlink="http://www.w3.org/1999/xlink" x="0px" y="0px"
	 viewBox="0 0 383.6 73.9" style="enable-background:new 0 0 383.6 73.9;" xml:space="preserve">
<style type="text/css">
	.st0{fill:#6D6E71;}
</style>
<title>Assets Logo</title>
<path class="st0" d="M61.7,16.1c1.3,1.8,2.2,4,2.5,6.2l0.2,1.6v1.7c0,1.2-0.1,2.4-0.4,3.6c-0.8,3.3-2.2,6.5-4,9.4
	c-1.9,3-4.1,5.8-6.6,8.4l6.1,7.1l5.9,6.9l0.2,0.9c0,0.4-0.1,0.8-0.3,1.1C65,63.7,64.5,64,64,64.1c-1.8,0.1-3.5-0.3-5.2-0.9
	c-1.6-0.7-2.9-1.9-3.9-3.3c-1.9-2.9-4.4-5.4-7.1-7.4c-2.1,1.5-4.3,2.9-6.8,4.4s-5.1,2.9-8.1,4.3c-2.9,1.4-6.1,2.1-9.3,2.1
	c-2.3,0-4.6-0.3-6.8-1c-2.6-1.1-4.8-3-6.1-5.5c-1.4-2.6-2.1-5.4-2.1-8.3C9.4,41,12.2,33.9,16.6,28c4.4-6.2,10-11.4,16.3-15.6
	c2.2-1.3,3.9-2,5.1-2l1,0.2c0.4,0.1,0.8,0.3,1.2,0.3c0.5,0.1,1.1,0.1,1.6,0.1l2.7-0.2l2.4-0.2H48c1.9,0,3.8,0.3,5.6,0.7
	C56.7,12.1,59.6,13.7,61.7,16.1z M55.1,31.6c0.8-1.9,1.6-3.9,2.3-6c0.2-0.7,0.4-1.4,0.4-2.2c0-1.5-0.6-2.9-1.6-4
	c-2.7-1.6-5.8-2.5-9-2.6c-2.6,0-5.1,0.7-7.4,2c-4.8,2.6-9.3,5.9-13.2,9.7c-3.2,3.2-5.9,6.8-8.1,10.8c-1.7,3.1-2.6,6.5-2.6,10.1
	l0.2,2.8c0.1,0.9,0.5,1.7,1.3,2.2l2.2,1.1h2.5c3.2,0,6.4-0.8,9.2-2.4c1.7-1,3.4-2,5.1-3.2s3.3-2.4,4.9-3.7l-4.5-4.4
	c-0.6-1-1-2-1.1-3.2c-0.1-1.1,0.3-2.2,1.1-3c0.6-0.6,1.3-1,2.2-1c0.7,0,1.5,0.1,2.2,0.4c1.3,0.7,2.5,1.6,3.4,2.8
	c1,1.2,2.2,2.3,3.5,3.1c1.6-1.2,2.9-2.7,3.9-4.4l1.5-2.5C53.9,33.3,54.5,32.4,55.1,31.6z"/>
<path class="st0" d="M100.1,43.7l-0.2,2v5.8l0.2,8c0,0.6-0.4,1.2-1,1.3L98.1,61l-0.7-0.2c-0.5-0.2-0.9-0.6-1.3-1
	c-1.1-1.2-1.7-2.8-1.6-4.4l-0.2-2.7v-6.3c0-0.6,0.1-1.2,0.2-1.7c-0.1-0.4-0.3-0.5-0.5-0.5l-0.5,0.2c-2.9,2.4-5.4,4.7-7.6,6.9
	c-2.4,2.4-4.9,4.7-7.5,6.8c-1.5,1.3-3.4,2-5.3,2L71.8,60l-1.4-0.4c-1.3-0.4-2.5-1.2-3.3-2.4c-0.4-0.5-0.8-1.1-1-1.7
	c-0.3-0.7-0.4-1.4-0.4-2.1c0-1.5,0.1-3,0.3-4.5c0.2-1.4,0.6-2.7,1.2-4c0.6-1.5,1.2-2.8,1.8-4c0.6-1.2,1.2-2.3,1.9-3.4
	c0.7-1.2,2-1.9,3.4-1.9l1,0.1c1,0.3,1.7,1.2,2,2.2c0.1,0.4,0,0.9-0.1,1.3l-0.6,1.1l-1.3,2.1l-1.5,2.8c-0.8,1.7-1.3,3.4-1.6,5.3
	c-0.1,1,0.4,2,1.3,2.4c0.5,0.2,1,0.4,1.6,0.4l1.2-0.2c1.6-1,3-2.3,4.2-3.9c1.2-1.4,2.5-2.9,4-4.3c2.1-2.1,3.8-3.8,5.2-4.9
	c1.7-1.6,3.5-3.1,5.4-4.5c0.6-0.2,1.2-0.3,1.9-0.3c1.1,0,2.2,0.4,3,1.1c0.7,0.7,1.1,1.7,1.1,2.7l-0.1,0.9l-0.4,2.2L100.1,43.7z"/>
<path class="st0" d="M125.5,45.8c-2.4,1.9-5,3.5-7.8,4.6c-2.6,1-5.4,1.6-8.2,1.6c-0.6,0.5-1,1.2-1,2c0,0.4,0.1,0.8,0.2,1.2
	c0.3,0.6,0.7,1,1.3,1.4c0.6,0.3,1.4,0.5,2.1,0.5h1.4c0.3-0.1,0.6-0.1,0.9-0.1c0.3,0,0.6,0,0.8-0.1c0.4-0.1,0.7-0.2,1.1-0.4
	c1.4-0.3,2.7-0.7,4-1.2l1.6-0.7l1.9-0.7c0.6-0.2,1.3,0,1.8,0.5l0.1,0.7c-0.1,0.6-0.4,1.2-1,1.5c-4.1,2.6-8.8,4.1-13.7,4.1h-2.3
	c-1.3-0.2-2.6-0.6-3.7-1.3c-1.2-0.6-2.1-1.7-2.6-2.9l-0.5-1.4l-0.1-1.7c0-0.5,0-1,0.1-1.6c0.1-0.6,0.3-1.2,0.5-1.7
	c1.1-3.2,3.1-6.1,5.6-8.4c2.6-2.4,5.4-4.5,8.5-6.3l3.6-1.6l2.2-0.6l1.8-0.2c1.8,0,3.7,0.4,5.3,1.1c1.2,0.5,1.9,1.8,1.8,3l-0.2,1.7
	c-0.5,1.4-1.4,2.8-2.5,3.8l-1.7,1.7L125.5,45.8z M123.1,41.4l0.7-0.8l1.1-1.3c0.2-0.2,0.4-0.5,0.4-0.8c0-0.3-0.6-0.5-1.7-0.5
	l-1.9,0.7l-1,0.4l-0.8,0.4c-0.6,0.3-1.1,0.7-1.7,1.1c-0.6,0.4-1.2,0.9-1.8,1.4c-1.1,0.9-1.9,1.9-2.5,3.2c-0.2,0.4-0.1,0.7,0.2,0.7h1
	C117.9,44.8,120.7,43.3,123.1,41.4L123.1,41.4z"/>
<path class="st0" d="M157.7,33.7c-0.6,0.5-1.3,0.9-2.1,1.1c-0.8,0.3-1.6,0.4-2.5,0.4h-2.9l-2,0.2l-4.3,1c-1.4,0.4-2.5,1.3-3.1,2.6
	c-0.2,0.4-0.3,0.9-0.3,1.3c0,0.5,0.2,1.1,0.5,1.5c0.6,0.8,1.4,1.4,2.2,1.9l2.6,1.4l2.6,1.3c0.8,0.5,1.5,1.2,1.8,2.2V50
	c0,1.3-0.6,2.5-1.7,3.2l-4.1,2.9c-2.2,1.1-4.6,1.9-7,2.6c-2.3,0.6-4.7,0.9-7.1,1l-1-0.2l-1-0.3c-0.6-0.1-1.1-0.6-1.2-1.3
	c0-0.5,0.5-0.9,1.4-1.4c2.4-0.2,4.7-0.7,7-1.4c2.3-0.7,4.3-1.9,5.8-3.7c0.2-0.3,0.4-0.6,0.4-1c0-0.6-0.5-1.3-1.6-2.1l-3.4-2
	c-1.6-0.5-2.8-1.8-3.3-3.4c-0.3-0.7-0.4-1.5-0.4-2.2c0-0.9,0.2-1.8,0.6-2.6c0.8-2,2.3-3.6,4.1-4.7c1.9-1.2,3.9-2.1,6-2.7l4-0.8
	l4.7-0.7c0.9,0,1.9,0.2,2.8,0.5c1.1,0.4,2,1.2,2.5,2.2L157.7,33.7z"/>
<path class="st0" d="M374.6,33.7c-0.6,0.5-1.3,0.9-2.1,1.1c-0.8,0.3-1.6,0.4-2.5,0.4h-2.9l-2,0.2l-4.3,1c-1.4,0.4-2.5,1.3-3.1,2.6
	c-0.2,0.4-0.3,0.9-0.3,1.3c0,0.5,0.2,1.1,0.5,1.5c0.6,0.8,1.4,1.4,2.2,1.9l2.5,1.4l2.6,1.3c0.8,0.5,1.5,1.2,1.8,2.2V50
	c0,1.3-0.6,2.5-1.7,3.2l-4.1,2.9c-2.2,1.1-4.6,1.9-7,2.6c-2.3,0.6-4.7,0.9-7.1,1l-1-0.2l-1-0.3c-0.6-0.1-1.1-0.6-1.2-1.3
	c0-0.5,0.5-0.9,1.4-1.4c2.4-0.2,4.7-0.7,7-1.4c2.3-0.7,4.3-1.9,5.8-3.7c0.2-0.3,0.4-0.6,0.4-1c0-0.6-0.5-1.3-1.6-2.1l-3.4-2
	c-1.6-0.5-2.8-1.8-3.3-3.4c-0.3-0.7-0.4-1.5-0.4-2.2c0-0.9,0.2-1.8,0.6-2.6c0.8-2,2.3-3.6,4.1-4.7c1.9-1.2,3.9-2.1,6-2.7l4-0.8
	l4.7-0.7c0.9,0,1.9,0.2,2.8,0.5c1.1,0.4,2,1.2,2.5,2.2L374.6,33.7z"/>
<path class="st0" d="M188.8,18.1l-1.3,1.9l-1.2,1.6l-1.1,1.6l-1.1,1.6l-0.8,1.3l-0.5,0.9l0.2,0.3l4-0.5l2-0.2l2,0.2
	c0.4,0.5,0.7,1.1,0.9,1.7c-0.2,0.7-0.7,1.2-1.4,1.6l-2.1,0.6l-3.9,0.9l-3.9,0.9c-0.6,0.4-1.1,1-1.4,1.6l-0.4,0.7l-0.6,0.9
	c-0.8,1.3-1.5,2.6-2.1,4c-0.8,1.8-1.5,3.6-2,5.4c-0.2,0.8-0.4,1.6-0.5,2.3c-0.1,0.8-0.2,1.5-0.2,2.3l0.1,1.3
	c-0.1,1.6,0.8,3.1,2.2,3.9h1.4c1.4,0,2.8-0.4,4-1.2c0.9-0.6,1.8-1.3,2.5-1.9c0.6-0.5,1.2-1,1.8-1.5c0.3-0.3,0.7-0.6,1.1-0.6
	c0.3,0,0.7,0.2,0.9,0.4c0.2,0.4,0.3,0.9,0.2,1.3c-0.4,1.2-1.1,2.3-2.2,3.1l-3.1,2.3c-2.3,1.8-5.2,2.9-8.2,2.9c-3.9,0-6.3-2-7.3-6
	c0-0.4,0-0.9-0.1-1.3v-0.9c0-1.2,0.1-2.4,0.2-3.6c0.2-1.3,0.5-2.5,1-3.7c1-3.1,2.3-6.2,3.7-9.1c-0.3-0.2-1.6,0.1-4.1,0.7l-4.6,1.1
	l-1.1,0.1l-1.3-0.1c-0.6-0.2-1.2-0.7-1.4-1.3l-0.1-0.9c0-0.4,0-0.8,0.1-1.2c0.2-0.5,0.4-0.9,0.8-1.2c1.1-1.2,3.6-2.1,7.5-2.7
	l4.7-0.7l2.8-0.5l0.4-0.5l1.2-1.6l3.2-4.9c1.1-1.9,2.4-3.7,3.7-5.5c0.6-0.8,1-1.4,1.3-1.7c0.6-0.8,1.4-1.5,2.2-2.1
	c0.6-0.5,1.3-0.7,2.1-0.7c0.5,0,1,0.1,1.4,0.2c0.4,0.3,0.7,0.6,1,1c0.2,1.1-0.1,2.2-0.8,3.1C190,16.4,189.3,17.2,188.8,18.1z"/>
<path class="st0" d="M249.4,16.1l-5,10.4l-4.8,11.2c0.7,0.4,1.4,1,1.8,1.7c0.4,0.4,0.2,0.8-0.5,1.3c-0.4,0-0.9,0-1.3,0.1l-1.3,0.1
	l-4.9,12.3l-4.2,11.5c-0.2,0.3-0.5,0.5-0.8,0.5c-0.4,0.1-0.8,0-1-0.3c-1.1-1.2-1.7-2.7-1.7-4.4c0-1.7,0.3-3.5,0.7-5.2l2.1-6.5
	l2.5-7.2c-6.8,0.7-13.7,1.7-20.8,3.1c-2.4,6.2-4.6,12.1-6.5,17.9c-0.3,0.3-0.6,0.5-1,0.6c-0.3,0.1-0.6,0-0.8-0.4
	c-1.2-1.2-1.8-2.8-1.8-4.4c0-1.7,0.3-3.4,0.7-5.1l1.2-4l1.1-3.7l-0.7-0.4l-1.6-1.4c-0.3-0.4-0.5-0.8-0.5-1.3l0.1-0.7
	c0.2-0.6,0.7-1.1,1.2-1.4c0.6-0.4,1.3-0.6,2-0.8h0.7l0.7-0.2l0.7-2.3l0.8-2.4l3.6-10c1.2-3.2,2.6-6.5,4.2-9.8c0.4-0.8,1-1.6,1.6-2.3
	c0.6-0.7,1.4-1.1,2.4-1.1c0.9,0,1.8,0.4,2.3,1.2l0.8,1.3l0.6,1.2l0.1,0.8l0.1,0.8c0,0.7-0.2,1.4-0.5,2.1c-3.4,6.6-6.4,13.1-9,19.5
	l3.4-0.3l3.6-0.4l6.3-0.4l6.5-0.3l0.8-2.5l1-2.5l3.6-10c1.2-3.2,2.6-6.5,4.1-9.9c0.4-0.8,0.9-1.5,1.6-2.2c0.6-0.7,1.4-1.2,2.3-1.3
	c0.5,0,0.9,0.1,1.3,0.2c0.4,0.2,0.8,0.6,1.1,1l0.8,1.3l0.6,1.2l0.1,0.8L250,14C249.9,14.8,249.8,15.5,249.4,16.1z"/>
<path class="st0" d="M266.3,35.5c1,0.1,2,0.5,2.9,1.1c0.9,0.5,1.7,1.2,2.2,2.2c0.4,1,0.6,2.1,0.6,3.1c0,0.5-0.1,1.1-0.2,1.6
	c-0.1,0.6-0.4,1.2-0.7,1.7c-1.1,1.9-2.3,3.7-3.6,5.4c-2.3,2.1-4.9,4-7.7,5.5c-2.8,1.4-5.8,2.4-8.9,2.9l-1,0.2h-2.1l-1.1-0.2
	c-1.3-0.3-2.6-0.7-3.8-1.3c-2.4-1.3-3.6-2.9-3.6-5c0-0.9,0.2-1.8,0.6-2.7c1.2-2.9,2.7-5.5,4.6-8c2.2-2.4,4.7-4.4,7.5-6.1
	c2.9-1.6,5.9-2.8,9.1-3.6l1.3-0.2c0.5,0,1,0.1,1.5,0.3c0.9,0.4,1.6,1.1,2,2L266.3,35.5z M264.9,47.8c1-1,1.6-2.4,1.7-3.8
	c-0.1-1.5-0.7-2.9-1.9-3.8c-1.1-0.4-2.3-0.6-3.5-0.7c-1.1,0-2.2,0.2-3.2,0.5c-2.2,0.7-4.2,1.8-6,3.2c-1.1,0.9-2.1,1.9-3,2.9
	c-1,1.2-1.9,2.5-2.5,3.9c-0.3,0.6-0.5,1.3-0.5,2c0,0.5,0.2,1,0.4,1.5c0.2,0.7,1.6,1,3.9,1c1.3,0,2.6-0.2,3.9-0.5
	c1.4-0.4,2.7-1,3.9-1.7l3.6-1.9C262.8,49.8,263.9,48.9,264.9,47.8z"/>
<path class="st0" d="M301.3,18.1L300,20l-1.2,1.6l-1.1,1.6l-1.1,1.6l-0.8,1.3l-0.5,0.9l0.2,0.3l4-0.5l2-0.2l2,0.2
	c0.4,0.5,0.7,1.1,0.9,1.7c-0.2,0.7-0.7,1.2-1.4,1.6l-2.1,0.6l-3.9,0.9l-3.9,0.9c-0.6,0.4-1.1,1-1.4,1.6l-0.4,0.7l-0.6,0.9
	c-0.8,1.3-1.5,2.6-2.1,4c-0.8,1.8-1.5,3.6-2,5.4c-0.2,0.8-0.4,1.6-0.5,2.3c-0.1,0.8-0.2,1.5-0.2,2.3l0.1,1.3
	c-0.1,1.6,0.8,3.1,2.2,3.9h1.4c1.4,0,2.8-0.4,4-1.2c0.9-0.6,1.8-1.3,2.5-1.9c0.6-0.5,1.2-1,1.8-1.5c0.3-0.3,0.7-0.6,1.1-0.6
	c0.3,0,0.7,0.2,0.9,0.4c0.2,0.4,0.3,0.9,0.2,1.3c-0.4,1.2-1.1,2.3-2.2,3.1l-3.1,2.3c-2.3,1.8-5.2,2.9-8.2,2.9c-3.9,0-6.3-2-7.3-6
	c0-0.4,0-0.9-0.1-1.3v-1c0-1.2,0.1-2.4,0.2-3.6c0.2-1.3,0.5-2.5,1-3.7c1-3.1,2.2-6.2,3.7-9.1c-0.3-0.2-1.6,0.1-4.1,0.7l-4.6,1.1
	l-1.1,0.1l-1.3-0.1c-0.6-0.2-1.2-0.7-1.4-1.3l-0.1-0.9c0-0.4,0-0.8,0.1-1.2c0.2-0.5,0.4-0.9,0.8-1.2c1.1-1.2,3.6-2.1,7.5-2.7
	l4.7-0.7l2.8-0.5l0.4-0.5l1.2-1.6l3.2-4.9c1.1-1.9,2.4-3.7,3.7-5.5c0.6-0.8,1-1.4,1.3-1.7c0.6-0.8,1.4-1.5,2.2-2.1
	c0.6-0.5,1.3-0.7,2.1-0.7c0.5,0,1,0.1,1.4,0.2c0.4,0.3,0.7,0.6,1,1c0.2,1.1-0.1,2.2-0.8,3.1C302.5,16.4,301.9,17.2,301.3,18.1z"/>
<path class="st0" d="M325.7,45.8c-2.4,1.9-5,3.5-7.8,4.6c-2.6,1-5.4,1.6-8.2,1.6c-0.6,0.5-1,1.2-1,2c0,0.4,0.1,0.8,0.2,1.2
	c0.3,0.6,0.7,1,1.3,1.4c0.6,0.3,1.4,0.5,2.1,0.5h1.4c0.3-0.1,0.6-0.1,0.9-0.1c0.3,0,0.6,0,0.8-0.1c0.4-0.1,0.8-0.2,1.1-0.4
	c1.4-0.3,2.7-0.7,4-1.2l1.6-0.7l1.9-0.7c0.6-0.2,1.3,0,1.8,0.5l0.1,0.7c-0.1,0.6-0.4,1.2-1,1.5c-4.1,2.6-8.8,4.1-13.7,4.1h-2.3
	c-1.3-0.2-2.6-0.6-3.7-1.3c-1.2-0.6-2.1-1.7-2.6-2.9l-0.5-1.4l-0.1-1.7c0-0.5,0-1,0.1-1.6c0.1-0.6,0.3-1.2,0.5-1.7
	c1.1-3.2,3.1-6.1,5.6-8.4c2.6-2.4,5.4-4.5,8.5-6.3l3.6-1.6l2.2-0.6l1.8-0.2c1.8,0,3.7,0.4,5.3,1.1c1.2,0.5,1.9,1.8,1.8,3l-0.2,1.7
	c-0.5,1.4-1.4,2.8-2.5,3.8l-1.7,1.7L325.7,45.8z M323.3,41.4l0.7-0.8l1.1-1.3c0.2-0.2,0.4-0.5,0.4-0.8c0-0.3-0.6-0.5-1.7-0.5
	l-1.9,0.7l-1,0.4l-0.8,0.4c-0.6,0.3-1.1,0.7-1.7,1.1c-0.6,0.4-1.2,0.9-1.8,1.4c-1.1,0.9-1.9,1.9-2.5,3.2c-0.2,0.4-0.1,0.7,0.2,0.7h1
	C318.2,44.8,320.9,43.3,323.3,41.4L323.3,41.4z"/>
<path class="st0" d="M349.1,13.4l-7.9,18c-1.4,3.3-2.4,6.7-3.1,10.2c-0.8,3.9-1.2,7.8-1.1,11.8c-0.1,0.8,0.1,1.7,0.7,2.3
	c0.4,0.4,0.9,0.6,1.4,0.7l0.7-0.1c0.7-0.2,1.3,0.1,1.8,0.9c0,0.4,0,0.7-0.1,1.1c-0.1,0.4-0.3,0.7-0.6,1.1c-1.1,0.6-2.4,0.9-3.7,0.9
	c-1.3,0-2.5-0.4-3.5-1.3c-0.7-0.6-1.3-1.3-1.6-2.2l-0.3-1.3v-4.6c0-0.4,0-0.7,0.1-1.1c0.6-6,1.8-11.9,3.5-17.7
	c0.4-1.5,0.9-3.1,1.5-4.9c0.6-1.8,1.1-3.4,1.7-4.9c0.6-1.5,1.1-2.9,1.8-4.4s1.3-2.9,2.1-4.5l1.1-2.2c0.6-0.8,1.5-1.3,2.5-1.4
	c0.9-0.2,1.9,0.1,2.6,0.7c0.3,0.6,0.5,1.2,0.5,1.9L349.1,13.4z"/>
</svg>
