<svg id="Layer_1" data-name="Layer 1" xmlns="http://www.w3.org/2000/svg" viewBox="0 0 291.255 128.199"><defs><style>.cls-1{fill:#6d6e71;}</style></defs><title>Assets Logo</title><path class="cls-1" d="M279.881,75.5q-3.4,3-6.3,5.25t-5.2,3.951a28.146,28.146,0,0,1-3.9,2.352,6.457,6.457,0,0,1-2.5.75,2.717,2.717,0,0,1-.746-.1,3.444,3.444,0,0,1-.551-.2c-.068-.133-.136-.281-.2-.45a1.79,1.79,0,0,1-.1-.65,3.932,3.932,0,0,1,.548-1.551,27.492,27.492,0,0,1,1.653-2.65l.1-.2,16.506-22.108h-5.4l-2.7,3.8v-.9a6.016,6.016,0,0,0-.248-1.851,2.709,2.709,0,0,0-.849-1.248,3.578,3.578,0,0,0-1.353-.8,5.886,5.886,0,0,0-1.95-.3,15.347,15.347,0,0,0-3.7.5,27.742,27.742,0,0,0-4.3,1.5,37.184,37.184,0,0,0-4.453,2.3,46.791,46.791,0,0,0-4.352,3,51.162,51.162,0,0,0-5.248,4.551,30.951,30.951,0,0,0-5.642,7.928c-1.094,1-2.135,1.926-3.112,2.775q-2.7,2.351-4.9,4.052a33.671,33.671,0,0,1-4,2.452,6.645,6.645,0,0,1-2.8.85,1.475,1.475,0,0,1-.553-.1.638.638,0,0,1-.349-.3,1.6,1.6,0,0,1-.3-.4,1.181,1.181,0,0,1-.1-.5,6.131,6.131,0,0,1,.8-2.3,47.376,47.376,0,0,1,2.4-4.1q1.6-2.5,4.2-6.052t6-8.352v.1q9.5-6.5,17.055-12.456t13.054-11.152a69.217,69.217,0,0,0,8.352-9.1q2.751-3.8,2.751-6.2a2.915,2.915,0,0,0-.2-1.15,2.88,2.88,0,0,0-.6-.85,3.972,3.972,0,0,0-.9-.5,3.557,3.557,0,0,0-1.3-.2,11.377,11.377,0,0,0-4.853,1.5,45.462,45.462,0,0,0-6.752,4.4,95.793,95.793,0,0,0-8,6.95q-4.1,3.956-8.4,8.954-6.506,7.3-11.455,13.555t-8.353,11.454q-2.5,3.639-4.1,6.536c-1.394,1.025-2.756,1.986-4.077,2.866q-3.3,2.2-6.3,3.9a38.24,38.24,0,0,1-5.8,2.4,15.808,15.808,0,0,1-4.6.8,6.519,6.519,0,0,1-1.45-.15,2.122,2.122,0,0,1-1.049-.551,1.676,1.676,0,0,1-.7-.749,2.639,2.639,0,0,1-.2-1.052,5.218,5.218,0,0,1,.3-1.6,12.018,12.018,0,0,1,1-2.1,29.136,29.136,0,0,1,1.652-2.5q.953-1.3,2.051-2.9l.1.1a79.854,79.854,0,0,0,9.905-3.151,48.364,48.364,0,0,0,7.9-3.951,24.587,24.587,0,0,0,5.2-4.3,6.021,6.021,0,0,0,1.7-3.8,2.909,2.909,0,0,0-.248-1.3,2.727,2.727,0,0,0-.753-.9,3.393,3.393,0,0,0-1.148-.5,7.266,7.266,0,0,0-1.851-.2,15.514,15.514,0,0,0-3.9.55,27.71,27.71,0,0,0-4.5,1.652,32,32,0,0,0-4.554,2.45,48.894,48.894,0,0,0-4.45,3.252,43.405,43.405,0,0,0-5,4.8,41.91,41.91,0,0,0-3.6,4.7,21.77,21.77,0,0,0-2.25,4.65c-.01.032-.017.063-.027.094-.32.273-.64.549-.951.807q-2.7,2.248-4.9,3.752a26.007,26.007,0,0,1-3.749,2.351,6.248,6.248,0,0,1-2.553.75,1.336,1.336,0,0,1-.6-.151,5.2,5.2,0,0,1-.6-.35,2.151,2.151,0,0,1-.351-.45.887.887,0,0,1-.15-.451,3.475,3.475,0,0,1,.45-1.4,18.25,18.25,0,0,1,1.353-2.2l.2-.2,17.905-23.309-5.9.1a122.259,122.259,0,0,1-8.752,11.4,93.517,93.517,0,0,1-9.053,9.1,52.046,52.046,0,0,1-7.8,5.9,11.952,11.952,0,0,1-5.7,2,1.872,1.872,0,0,1-.748-.151c-.236-.1-.419-.182-.554-.249a1.958,1.958,0,0,1-.349-.5,1.305,1.305,0,0,1-.151-.6,2.621,2.621,0,0,1,.151-.848,4.805,4.805,0,0,1,.453-.951,10.513,10.513,0,0,1,.7-1.2,13.074,13.074,0,0,0,.8-1.4l17.406-22.609h-5.8L165.544,74.5a24.742,24.742,0,0,0-2.349,3.35c-.569.987-1.06,1.9-1.5,2.749-.085.066-.173.138-.257.2q-3,2.3-5.5,3.9a30.146,30.146,0,0,1-4.4,2.4,8.612,8.612,0,0,1-3.2.8,1.749,1.749,0,0,1-.648-.1c-.166-.067-.319-.134-.45-.2-.068-.133-.135-.263-.2-.4a1.1,1.1,0,0,1-.1-.5,1.993,1.993,0,0,1,.152-.7,5.652,5.652,0,0,1,.448-.9c.265-.335.583-.734.949-1.2s.784-1.032,1.251-1.7l9-10.6c.73-.934,1.4-1.818,2-2.65a23.726,23.726,0,0,0,1.6-2.551,17.3,17.3,0,0,0,.95-2.252,5.933,5.933,0,0,0,.351-1.851,3.734,3.734,0,0,0-.3-1.5,3.205,3.205,0,0,0-2.1-1.8,7.563,7.563,0,0,0-1.8-.2,11.775,11.775,0,0,0-3.6.648,23.97,23.97,0,0,0-4.3,1.951q-2.2,1.3-4.7,3.1c-1.563,1.123-3.218,2.4-4.955,3.817a1.338,1.338,0,0,0,.152-.317q1.1-2.1,1.7-3.6a6.882,6.882,0,0,0,.6-2.2,4.038,4.038,0,0,0-.251-1.451,2.185,2.185,0,0,0-.849-1.049,2.762,2.762,0,0,0-1.3-.7,8.052,8.052,0,0,0-1.9-.2,11.323,11.323,0,0,0-3.551.648,24.843,24.843,0,0,0-4.252,1.951q-2.2,1.3-4.852,3.252t-5.652,4.451l6.7-9.2h-5.1L105.662,83.475c-.565.425-1.116.838-1.635,1.221a28.149,28.149,0,0,1-3.9,2.352,6.45,6.45,0,0,1-2.5.75,2.727,2.727,0,0,1-.748-.1,3.481,3.481,0,0,1-.551-.2c-.067-.133-.134-.281-.2-.45a1.744,1.744,0,0,1-.1-.65,3.928,3.928,0,0,1,.55-1.551,27.251,27.251,0,0,1,1.652-2.65l.1-.2,16.5-22.108h-5.4l-2.7,3.8v-.9a6.016,6.016,0,0,0-.248-1.851,2.705,2.705,0,0,0-.851-1.248,3.554,3.554,0,0,0-1.351-.8,5.9,5.9,0,0,0-1.95-.3,15.322,15.322,0,0,0-3.7.5,27.68,27.68,0,0,0-4.3,1.5,37.5,37.5,0,0,0-4.454,2.3,46.9,46.9,0,0,0-4.35,3,51.07,51.07,0,0,0-5.249,4.551,27.149,27.149,0,0,0-3.955,4.952,23.673,23.673,0,0,0-2.549,5,13.809,13.809,0,0,0-.851,4.6,6.682,6.682,0,0,0,.3,2.1,4.06,4.06,0,0,0,1,1.6,6.059,6.059,0,0,0,1.6.8,6.671,6.671,0,0,0,2.1.3,12.176,12.176,0,0,0,3.451-.55,31.923,31.923,0,0,0,4.05-1.55c.468-.266.95-.55,1.45-.85s1.018-.618,1.55-.952a29.02,29.02,0,0,0,2.953-2.25Q92.822,82.4,94.324,81c-.134.535-.269,1.035-.4,1.5s-.268.9-.4,1.3c-.067.4-.135.766-.2,1.1a5.008,5.008,0,0,0-.1,1,5.171,5.171,0,0,0,.252,1.652,3.118,3.118,0,0,0,.748,1.249,4.622,4.622,0,0,0,1.3.6,5.757,5.757,0,0,0,1.6.2,10.059,10.059,0,0,0,3.4-.751c.527-.2,1.087-.453,1.666-.739l-.665.888h5.8q2.906-4.1,5.954-7.8t6.052-6.8q1.5-1.6,3-3.049t2.9-2.753a56.212,56.212,0,0,1,8.1-5.9,12.649,12.649,0,0,1,6-2,4.656,4.656,0,0,1,.7.049.919.919,0,0,1,.5.251,1.384,1.384,0,0,1,.3.45,1.5,1.5,0,0,1,.1.55,2.4,2.4,0,0,1-.5,1.15c-.336.5-.8,1.117-1.4,1.852l-.3.5L120.632,89h5.7q4.5-6.2,9-11.353a86.178,86.178,0,0,1,9.1-9.054,56.1,56.1,0,0,1,8.1-5.9,12.646,12.646,0,0,1,6-2,4.411,4.411,0,0,1,.751.049.909.909,0,0,1,.45.251,1.378,1.378,0,0,1,.3.45,1.444,1.444,0,0,1,.1.55,1.518,1.518,0,0,1-.153.551,3.653,3.653,0,0,1-.45.749,5.377,5.377,0,0,1-.649.95q-.453.553-.95,1.151l-9.1,10.7a21.776,21.776,0,0,0-2.05,2.551,22.844,22.844,0,0,0-1.55,2.65,19.007,19.007,0,0,0-.949,2.45,7.418,7.418,0,0,0-.352,2.151,5.083,5.083,0,0,0,.3,1.8,4.692,4.692,0,0,0,.7,1.3,4.466,4.466,0,0,0,1.149.653,4.1,4.1,0,0,0,1.452.247,13.593,13.593,0,0,0,4.051-.749,24.52,24.52,0,0,0,5.15-2.45c1.226-.762,2.466-1.619,3.718-2.551a11.376,11.376,0,0,0-.214,2.05,5.588,5.588,0,0,0,.249,1.75,2.39,2.39,0,0,0,.75,1.15,3.2,3.2,0,0,0,1.2.9,4.338,4.338,0,0,0,1.7.3,9.638,9.638,0,0,0,3.2-.647q1.8-.654,4.005-1.652a38.5,38.5,0,0,0,4.451-3.1q2.25-1.8,4.751-4-.2.9-.351,1.6a11.81,11.81,0,0,1-.351,1.3c-.067.4-.116.749-.15,1.049a8.7,8.7,0,0,0-.048.951,6.258,6.258,0,0,0,.3,2A3.588,3.588,0,0,0,181.8,90a3.663,3.663,0,0,0,1.552.3,9.063,9.063,0,0,0,3.4-.85,30.8,30.8,0,0,0,4.5-2.451q1.932-1.335,3.972-2.977c-.03.36-.046.72-.046,1.078a5.2,5.2,0,0,0,.451,2.251A5.03,5.03,0,0,0,196.882,89a5.372,5.372,0,0,0,1.848,1.052,7.848,7.848,0,0,0,2.452.349,17.514,17.514,0,0,0,5-.85,46.5,46.5,0,0,0,6.2-2.451,76.65,76.65,0,0,0,6.7-4.053c.56-.374,1.124-.768,1.691-1.176a12.426,12.426,0,0,0-1.118,4.529,4.413,4.413,0,0,0,.3,1.651,2.71,2.71,0,0,0,.8,1.151,3.8,3.8,0,0,0,1.2.8,4.312,4.312,0,0,0,1.7.3,10.143,10.143,0,0,0,3.649-.8,26.58,26.58,0,0,0,4.554-2.4,48.329,48.329,0,0,0,5.248-4.2c.137-.125.279-.263.418-.391a12.511,12.511,0,0,0-.269,2.49,6.681,6.681,0,0,0,.3,2.1,4.071,4.071,0,0,0,1,1.6,6.044,6.044,0,0,0,1.6.8,6.681,6.681,0,0,0,2.1.3,12.163,12.163,0,0,0,3.449-.55,31.818,31.818,0,0,0,4.051-1.55c.466-.266.951-.55,1.449-.85s1.018-.618,1.55-.952a29.141,29.141,0,0,0,2.954-2.25c.965-.833,1.952-1.716,2.951-2.651q-.2.8-.4,1.5c-.135.468-.269.9-.4,1.3-.068.4-.136.766-.2,1.1a5.008,5.008,0,0,0-.1,1,5.2,5.2,0,0,0,.252,1.652,3.1,3.1,0,0,0,.749,1.249,4.616,4.616,0,0,0,1.3.6,5.762,5.762,0,0,0,1.6.2,10.059,10.059,0,0,0,3.4-.751,24.885,24.885,0,0,0,4.5-2.352,67.116,67.116,0,0,0,5.548-4.1q2.954-2.4,6.253-5.6ZM250.57,47.484q5.1-6.4,9.6-11.1a65.3,65.3,0,0,1,7.853-7.052q3.252-2.351,5.252-2.351a2.7,2.7,0,0,1,.8.1,1.289,1.289,0,0,1,.5.3.655.655,0,0,1,.3.4,2.649,2.649,0,0,1,.1.8q0,1.6-2.45,4.9a64.619,64.619,0,0,1-7.452,8q-4.9,4.8-11.206,9.9Q247.627,56.441,240,61.7,245.531,53.811,250.57,47.484ZM211.086,68.393a54.172,54.172,0,0,1,5-4.3,26.626,26.626,0,0,1,4.5-2.7,8.611,8.611,0,0,1,3.4-.9,3.1,3.1,0,0,1,.848.1,2.278,2.278,0,0,1,.651.3.632.632,0,0,1,.3.351,1.46,1.46,0,0,1,.1.55,4.2,4.2,0,0,1-1.451,2.7,27.863,27.863,0,0,1-4.453,3.5,49.526,49.526,0,0,1-6.5,3.45,42.56,42.56,0,0,1-7.658,2.492Q208.554,70.834,211.086,68.393ZM94.923,77.3q-2.4,2.5-4.7,4.5a37.876,37.876,0,0,1-4.5,3.4,25.225,25.225,0,0,1-4.153,2.1,9.574,9.574,0,0,1-3.351.7,3.1,3.1,0,0,1-.848-.1,2.3,2.3,0,0,1-.652-.3,1.879,1.879,0,0,1-.348-.5,1.523,1.523,0,0,1-.152-.7,6.011,6.011,0,0,1,.751-2.6,29.045,29.045,0,0,1,2.15-3.5q1.4-2,3.4-4.35t4.6-4.953q2.2-2.3,4.352-4.2a31.641,31.641,0,0,1,4.252-3.2,20.543,20.543,0,0,1,3.649-2.1,9.649,9.649,0,0,1,2.952-.8v.1a3.34,3.34,0,0,1,1.049.148,1.9,1.9,0,0,1,.751.451,1.987,1.987,0,0,1,.451.7,2.578,2.578,0,0,1,.15.9,6.657,6.657,0,0,1-.6,2.452,19.22,19.22,0,0,1-1.9,3.351,47.7,47.7,0,0,1-3.1,4Q97.323,74.9,94.923,77.3Zm164.35,0q-2.4,2.5-4.7,4.5a37.869,37.869,0,0,1-4.5,3.4,25.186,25.186,0,0,1-4.153,2.1,9.574,9.574,0,0,1-3.35.7,3.118,3.118,0,0,1-.85-.1,2.314,2.314,0,0,1-.652-.3,1.9,1.9,0,0,1-.347-.5,1.51,1.51,0,0,1-.151-.7,6.008,6.008,0,0,1,.75-2.6,28.94,28.94,0,0,1,2.151-3.5q1.4-2,3.4-4.35t4.6-4.953q2.205-2.3,4.352-4.2a31.7,31.7,0,0,1,4.252-3.2,20.473,20.473,0,0,1,3.649-2.1,9.658,9.658,0,0,1,2.951-.8v.1a3.347,3.347,0,0,1,1.05.148,1.89,1.89,0,0,1,.751.451,1.989,1.989,0,0,1,.452.7,2.579,2.579,0,0,1,.147.9,6.649,6.649,0,0,1-.6,2.452,19.207,19.207,0,0,1-1.9,3.351,47.932,47.932,0,0,1-3.1,4Q261.674,74.9,259.273,77.3Z"/><path class="cls-1" d="M95,112.2c-2.6,0-5.678-1.32-7.972-2.714a34.946,34.946,0,0,1-9.794-9.362,97.387,97.387,0,0,1-9.425-16.23c-1.187-2.638-2.57-5.965-4.129-9.957Q61.4,68.128,58.6,59.94q15.294-13.117,22.45-17.922A92.827,92.827,0,0,1,99.509,31.692,35.3,35.3,0,0,1,112.083,28.9q.668,0,1.307.044a5.994,5.994,0,0,0,.641.06V26.138c-.163-.031-.317-.066-.5-.088-.531-.044-1.033-.059-1.54-.059-7.519.011-17.315,3.771-29.548,11.164q-6.641,4.225-13.2,8.986-6.287,4.566-12.621,9.9a2.11,2.11,0,0,0-.9-.523l-2.8,2.806c-.136.5-.258,1.054-.38,1.682q-4.673,4.092-7.246,6.666c-.284.233-.553.437-.761.576.014-.048.029-.1.048-.155h0a1.382,1.382,0,0,1,.371-.56l.055-.055.046-.069C60,43.273,67.789,28.889,68.474,22.567a7.311,7.311,0,0,0,.061-.965,9.289,9.289,0,0,0-.335-2.4,15.086,15.086,0,0,0-1.731-3.895c-1.608-3.412-4.076-5.458-7.191-5.662-.259-.018-.5-.021-.746-.021a31.113,31.113,0,0,0-10.926,2.419A79.062,79.062,0,0,0,32.3,20.369C20.313,28.078,12.973,35.612,10.4,43.156a8.018,8.018,0,0,0-.323,2.358,5.3,5.3,0,0,0,.22,1.461,6.712,6.712,0,0,0,1.011,1.974,9.571,9.571,0,0,0,1.414,1.519c.3.259.564.479.813.685l2.405-2.26c-.743-.53-2.578-1.412-2.382-2.793a5.831,5.831,0,0,1,.362-1.765C16,38.3,22.643,31.507,33.926,24.217a79.47,79.47,0,0,1,14.917-8.181,27.143,27.143,0,0,1,9.673-2.156c.426,0,.839.02,1.244.054,3.574.288,4.925,1.675,5.019,5.055a8.062,8.062,0,0,1-.547,3.023q-3.27,9.609-16.461,33.122-5.9,10.5-10.141,17.435c-2.694,4.4-4.91,7.841-7.292,11.11l3.776,2.231c.678-.845,5.245-7.023,10.367-12.807q3.994-4.588,6.509-7.011a31.688,31.688,0,0,1,3.722-2.89C65.386,90.9,76.266,107.033,86.7,111.83c2.808,1.369,4.509,2.054,7.405,2.11,5.9.115,11.657-2.19,17.343-7.472l-.988-1.1C105.82,109.676,100.645,112.188,95,112.2Z"/><path class="cls-1" d="M135.672,101.587l-7.516,16.868h-1.228l-7.521-16.868h1.349l6.819,15.281,6.819-15.281Z"/><path class="cls-1" d="M150.449,101.587h1.227v16.868h-1.227Z"/><path class="cls-1" d="M169.606,101.587h1.228v15.762h9.711v1.106H169.606Z"/><path class="cls-1" d="M195.754,101.587h1.227v15.762h9.712v1.106H195.754Z"/><path class="cls-1" d="M232.354,113.71h-9.783l-2.146,4.745H219.1l7.759-16.868h1.228l7.759,16.868h-1.327Zm-.454-1.04-4.435-9.733-4.413,9.733Z"/><path class="cls-1" d="M251.859,117.941a6.837,6.837,0,0,1-2.615-1.654l.553-.912a6.541,6.541,0,0,0,2.4,1.526,8.636,8.636,0,0,0,3.169.592,6.026,6.026,0,0,0,3.639-.918,2.84,2.84,0,0,0,1.227-2.384,2.5,2.5,0,0,0-.647-1.808,4.3,4.3,0,0,0-1.614-1.034,21.262,21.262,0,0,0-2.6-.747,25.479,25.479,0,0,1-2.976-.89,4.784,4.784,0,0,1-1.9-1.339,3.557,3.557,0,0,1-.785-2.422,4.108,4.108,0,0,1,.652-2.256,4.425,4.425,0,0,1,1.986-1.626,8.166,8.166,0,0,1,3.34-.6,9.446,9.446,0,0,1,2.743.409,8.182,8.182,0,0,1,2.339,1.112l-.459.984a7.706,7.706,0,0,0-2.228-1.056,8.3,8.3,0,0,0-2.4-.365,5.692,5.692,0,0,0-3.545.94,2.956,2.956,0,0,0-1.206,2.433,2.478,2.478,0,0,0,.653,1.809,4.28,4.28,0,0,0,1.615,1.039,24.436,24.436,0,0,0,2.627.769,24.967,24.967,0,0,1,2.964.891,4.968,4.968,0,0,1,1.891,1.316,3.445,3.445,0,0,1,.78,2.372,4.037,4.037,0,0,1-.658,2.24,4.487,4.487,0,0,1-2.041,1.615,8.338,8.338,0,0,1-3.373.6A9.831,9.831,0,0,1,251.859,117.941Z"/></svg>